<svg width="1000" height="1000" viewBox="0 0 1000 1000" fill="none" xmlns="http://www.w3.org/2000/svg">
<g clip-path="url(#clip0_58_2)">
<path d="M827.078 556.843V569.923H1000V556.843H827.078Z" fill="#DD0301"/>
<path d="M0 556.843V569.923H148.105V556.843H0Z" fill="#DD0301"/>
<path d="M473.541 534.281V539.744C481.039 539.525 483.6 546.301 483.6 561.599V650.765C483.6 666.063 481.039 672.837 473.541 672.619V678.082H509.02V672.619C501.521 672.837 499.145 666.063 499.145 650.765V560.287L553.459 635.029C558.945 642.459 564.248 649.672 564.248 660.162C564.248 667.592 560.774 671.526 554.922 672.619V677.863H591.682V672.4C584.184 672.618 581.623 665.844 581.623 650.546V561.599C581.623 546.301 584.184 539.525 591.682 539.744V534.281H554.922V539.744C562.42 539.525 566.078 546.301 566.078 561.599V589.134L545.961 559.632C543.583 556.354 538.646 550.235 538.646 545.646C538.646 542.149 540.84 540.618 543.4 539.744V534.281H473.541Z" fill="#DD0301"/>
<path d="M409.984 534.281V539.744C417.482 539.525 420.043 546.301 420.043 561.599V650.765C420.043 666.063 417.482 672.837 409.984 672.619V678.082H467.592V672.619C460.094 672.837 457.533 666.063 457.533 650.765V561.599C457.533 546.301 460.094 539.525 467.592 539.744V534.281H409.984Z" fill="#DD0301"/>
<path d="M270.314 534.281V539.744C277.813 539.525 280.373 546.301 280.373 561.599V650.765C280.373 666.063 277.813 672.837 270.314 672.619V678.082H328.652V672.619C320.423 672.4 317.863 665.844 317.863 649.671V587.824H354.256V649.671C354.256 665.844 351.696 672.4 343.467 672.619V678.082H401.805V672.619C394.307 672.837 391.746 666.063 391.746 650.765V561.599C391.746 546.301 394.307 539.525 401.805 539.744V534.281H343.467V539.744C350.965 539.525 354.256 546.301 354.256 561.599V573.4H317.863V561.599C317.863 546.301 321.154 539.525 328.652 539.744V534.281H270.314Z" fill="#DD0301"/>
<path d="M814.859 530.128C812.299 533.844 807.179 535.375 803.521 535.375C799.681 535.375 788.708 530.785 770.055 530.785C754.144 530.785 723.969 539.525 723.969 578.863C723.969 588.916 728.176 598.968 734.76 605.306C740.429 610.77 749.023 614.486 755.973 617.109L774.443 624.32C782.124 627.379 793.281 630.441 793.281 642.46C793.281 660.6 779.016 664.095 766.58 664.095C747.634 664.095 732.022 649.679 726.004 629.222H720.529L723.969 681.361C726.712 678.083 729.637 676.115 733.844 676.115C737.319 676.115 742.439 677.426 745.914 678.3C755.058 680.267 762.191 681.578 771.518 681.578C809.008 681.578 832.051 664.971 832.051 628.693C832.051 610.335 818.335 595.691 801.693 589.791L780.295 582.142C773.528 579.738 761.275 576.46 761.275 565.533C760.727 553.076 772.431 548.267 781.393 548.267C793.574 548.267 805.749 557.965 812.441 570.419H818.898L814.859 530.128Z" fill="#DD0301"/>
<path d="M165.045 529.517L157.346 572.316H162.08C167.705 555.575 179.975 546.405 195.924 546V648.73C195.924 664.986 193.279 672.211 180.998 672.437V678.083H249.584V672.437C237.303 672.211 234.656 664.986 234.656 648.73V546C251.238 547.213 261.444 556.054 268.012 572.316H273.1L265.875 529.517H165.045Z" fill="#DD0301"/>
<path d="M696.158 529.255C693.781 533.189 690.123 535.375 686.1 535.375C683.356 535.375 680.612 534.72 677.869 534.064C668.542 531.879 663.056 530.787 649.34 530.787C621.556 530.787 597.166 543.538 587.037 570.351V629.914C591.304 642.425 598.164 653.721 607.096 661.912C622.641 676.117 642.025 678.083 660.861 678.083H719.748V672.621C716.822 671.309 713.715 669.998 712.252 666.501C710.423 662.349 710.605 652.077 710.605 647.269V621.917C710.605 610.335 709.143 597.442 722.127 596.568V591.105H663.422V596.568C675.492 597.224 674.578 608.807 674.578 619.515V639.621C674.578 644.866 674.761 651.859 672.566 656.449C670.189 661.694 664.519 663.66 659.764 663.66C633.795 663.66 622.275 628.475 622.275 602.25C622.275 575.15 632.149 547.177 658.301 547.177C676.223 547.177 691.403 561.6 697.986 581.05L701.826 580.396L696.158 529.255Z" fill="#DD0301"/>
<path d="M231.664 353.197V358.662C239.162 358.443 241.721 365.217 241.721 380.515V469.681C241.721 484.979 239.162 491.753 231.664 491.535V497H289.088V491.535C281.59 491.753 279.029 484.979 279.029 469.681V431.437L285.43 428.814C293.111 439.523 311.398 470.993 311.398 484.324C311.398 490.224 308.107 491.316 303.9 491.535V497H383.26V491.535C378.322 490.879 374.848 488.694 374.848 481.919C374.848 477.111 377.042 468.808 378.322 464.218L384.906 441.925C395.148 441.27 404.107 444.549 412.52 451.542C419.652 457.225 427.883 468.15 427.883 478.859C427.883 486.289 423.676 491.098 417.824 491.535V497H505.867V491.535C498.369 491.753 495.992 484.979 495.992 469.681V379.205L550.307 453.945C555.793 461.375 561.098 468.59 561.098 479.08C561.098 486.51 557.622 490.442 551.77 491.535V496.781H588.529V491.318C581.031 491.536 578.471 484.76 578.471 469.462V380.515C578.471 365.217 581.031 358.443 588.529 358.662V353.197H551.77V358.662C559.268 358.443 562.926 365.217 562.926 380.515V408.052L542.811 378.548C540.433 375.27 535.494 369.151 535.494 364.562C535.494 361.065 537.69 359.536 540.25 358.662V353.197H470.391V358.662C477.889 358.443 480.447 365.217 480.447 380.515V469.681C480.447 480.09 479.258 486.545 476.139 489.544C470.195 485.055 467.965 474.29 465.738 466.839C453.12 422.257 437.209 366.966 437.209 364.125C437.209 360.409 438.673 359.099 441.416 358.662V353.197H388.016V358.662C390.576 359.099 392.037 360.846 392.037 364.125C392.037 367.184 389.844 373.303 388.93 375.925L360.217 466.621C358.53 471.501 356.744 476.883 354.236 481.443C353.141 478.847 352.286 476.1 351.633 473.615C345.232 450.231 334.623 428.375 321.09 412.859C333.16 405.428 347.061 393.408 347.061 375.269C347.061 366.527 342.854 360.192 336.453 356.695C329.504 353.417 321.457 353.415 313.959 353.197H231.664ZM292.928 367.621C302.072 367.621 308.289 373.303 308.289 384.449C308.289 403.025 291.465 411.767 279.029 415.482V383.138C279.029 379.86 278.664 374.397 280.676 371.775C283.419 368.497 289.27 367.621 292.928 367.621ZM402.098 382.263L415.996 434.06C408.681 427.941 399.72 423.133 390.576 423.351L402.098 382.263Z" fill="#DD0301"/>
<path d="M827.078 352.359V359.425C836.777 359.143 840.088 367.907 840.088 387.695V503.029C840.088 522.817 836.777 531.581 827.078 531.298V538.365H901.355V531.298C891.657 531.581 888.346 522.817 888.346 503.029V453.56L896.625 450.167C906.56 464.019 930.215 504.725 930.215 521.968C930.215 529.601 925.958 531.016 920.518 531.298V538.365H1000V531.298C989.592 531.298 984.86 518.011 982.258 508.117C973.978 477.87 960.259 449.601 942.754 429.531C958.366 419.92 976.344 404.372 976.344 380.91C976.344 369.602 970.902 361.405 962.623 356.882C953.634 352.642 943.226 352.642 933.527 352.359H827.078ZM906.324 371.015C918.152 371.015 926.193 378.366 926.193 392.783C926.193 416.811 904.431 428.118 888.346 432.923V391.087C888.346 386.847 887.873 379.778 890.475 376.386C894.023 372.146 901.593 371.015 906.324 371.015Z" fill="#DD0301"/>
<path d="M126.717 351.218L119.061 393.787H123.77C129.364 377.137 141.565 368.016 157.428 367.613V469.785C157.428 485.953 154.798 493.138 142.584 493.363V498.978H210.797V493.363C198.583 493.138 195.951 485.953 195.951 469.785V367.613C212.443 368.819 222.593 377.613 229.125 393.787H234.186L226.998 351.218H126.717Z" fill="#DD0301"/>
<path d="M817.133 349.701C813.658 354.072 806.343 353.197 801.771 353.197H718.744V358.662C726.242 358.443 728.803 365.217 728.803 380.515V469.681C728.803 484.979 726.242 491.753 718.744 491.535V497H809.453C811.465 497 813.476 497 815.305 497.437C817.316 497.656 818.963 498.529 820.426 500.496L835.971 443.675L832.131 441.925C822.438 465.746 807.44 482.576 784.031 482.576C769.584 482.576 766.293 476.894 766.293 462.033V414.607H771.23C780.374 414.607 788.055 413.734 795.188 421.601C796.526 423.055 797.741 424.658 798.844 426.371L806.092 425.505L800.627 387.808H795.746C793.737 401.364 782.955 400.185 772.146 400.185H766.293V393.191C766.293 375.707 765.197 367.621 783.119 367.621C801.407 367.621 817.134 380.297 822.438 401.496L826.461 399.964L817.133 349.701Z" fill="#DD0301"/>
<path d="M693.004 348.171C690.626 352.105 686.971 354.291 682.947 354.291C680.204 354.291 677.46 353.636 674.717 352.98C665.39 350.795 659.903 349.701 646.188 349.701C618.404 349.701 594.013 362.454 583.885 389.267V448.83C588.152 461.341 595.012 472.637 603.943 480.828C619.488 495.033 638.872 497 657.709 497H716.596V491.535C713.67 490.223 710.561 488.914 709.098 485.417C707.269 481.265 707.453 470.993 707.453 466.185V440.833C707.453 429.251 705.99 416.356 718.975 415.482V410.019H660.27V415.482C672.34 416.138 671.426 427.721 671.426 438.429V458.535C671.426 463.78 671.607 470.775 669.412 475.365C667.035 480.61 661.366 482.576 656.611 482.576C630.642 482.576 619.121 447.389 619.121 421.164C619.121 394.064 628.997 366.091 655.148 366.091C673.071 366.091 688.248 380.514 694.832 399.964L698.674 399.312L693.004 348.171Z" fill="#DD0301"/>
<path d="M59.1367 344.25C38.586 344.25 0.0221283 355.126 8.29819e-06 404.845C-0.0133917 434.768 16.2031 446.972 40.7207 456.302L64.5781 465.617C74.4993 469.569 88.9102 473.316 88.9102 488.841C88.9102 512.271 71.1019 516.48 55.0391 516.48C31.3462 516.48 19.1492 497.751 11.5254 474.218H3.55079L8.29819e-06 539.089C3.54323 534.855 7.32285 532.625 12.7559 532.625C17.2441 532.625 23.8576 534.316 28.3457 535.445C40.1566 537.985 49.3689 539.679 61.416 539.679C109.841 539.679 139.605 517.919 139.605 471.06C139.605 447.348 121.89 428.434 100.395 420.812L72.7539 410.933C64.014 407.828 48.5185 403.588 48.1875 389.478C47.8098 373.377 62.5971 367.179 74.1719 367.179C89.9055 367.179 105.941 381.042 114.586 397.128L122.85 351.175C122.85 351.175 120.243 353.202 113.023 352.228C104.869 351.128 93.0749 344.25 59.1367 344.25Z" fill="#DD0301"/>
<path d="M0 318.421V331.503L975.967 331.503V318.421L0 318.421Z" fill="#DD0301"/>
</g>
<defs>
<clipPath id="clip0_58_2">
<rect width="1000" height="363.157" fill="white" transform="translate(0 318.421)"/>
</clipPath>
</defs>
</svg>
